<?xml version="1.0" encoding="utf-8" standalone="no"?>
<!DOCTYPE svg PUBLIC "-//W3C//DTD SVG 1.1//EN"
  "http://www.w3.org/Graphics/SVG/1.1/DTD/svg11.dtd">
<svg xmlns:xlink="http://www.w3.org/1999/xlink" width="782.776406pt" height="288.462966pt" viewBox="0 0 782.776406 288.462966" xmlns="http://www.w3.org/2000/svg" version="1.1">
 <metadata>
  <rdf:RDF xmlns:dc="http://purl.org/dc/elements/1.1/" xmlns:cc="http://creativecommons.org/ns#" xmlns:rdf="http://www.w3.org/1999/02/22-rdf-syntax-ns#">
   <cc:Work>
    <dc:type rdf:resource="http://purl.org/dc/dcmitype/StillImage"/>
    <dc:format>image/svg+xml</dc:format>
    <dc:creator>
     <cc:Agent>
      <dc:title>Matplotlib v3.10.9, https://matplotlib.org/</dc:title>
     </cc:Agent>
    </dc:creator>
   </cc:Work>
  </rdf:RDF>
 </metadata>
 <defs>
  <style type="text/css">*{stroke-linejoin: round; stroke-linecap: butt}</style>
 </defs>
 <g id="figure_1">
  <g id="patch_1">
   <path d="M 0 288.462966 
L 782.776406 288.462966 
L 782.776406 0 
L 0 0 
L 0 288.462966 
z
" style="fill: none"/>
  </g>
  <g id="axes_1">
   <g id="patch_2">
    <path d="M 53.886406 231.27824 
L 389.716406 231.27824 
L 389.716406 23.08 
L 53.886406 23.08 
L 53.886406 231.27824 
z
" style="fill: none"/>
   </g>
   <g id="patch_3">
    <path d="M 69.151406 231.27824 
L 204.840295 231.27824 
L 204.840295 231.07916 
L 69.151406 231.07916 
z
" clip-path="url(#p953c8249cf)" style="fill: #8a6aa8"/>
   </g>
   <g id="patch_4">
    <path d="M 238.762517 231.27824 
L 374.451406 231.27824 
L 374.451406 187.679641 
L 238.762517 187.679641 
z
" clip-path="url(#p953c8249cf)" style="fill: #8a6aa8"/>
   </g>
   <g id="patch_5">
    <path d="M 69.151406 231.07916 
L 204.840295 231.07916 
L 204.840295 230.680999 
L 69.151406 230.680999 
z
" clip-path="url(#p953c8249cf)" style="fill: #b9a3cc"/>
   </g>
   <g id="patch_6">
    <path d="M 238.762517 187.679641 
L 374.451406 187.679641 
L 374.451406 186.684239 
L 238.762517 186.684239 
z
" clip-path="url(#p953c8249cf)" style="fill: #b9a3cc"/>
   </g>
   <g id="patch_7">
    <path d="M 69.151406 230.680999 
L 204.840295 230.680999 
L 204.840295 32.994202 
L 69.151406 32.994202 
z
" clip-path="url(#p953c8249cf)" style="fill: #dcd7e0"/>
   </g>
   <g id="patch_8">
    <path d="M 238.762517 186.684239 
L 374.451406 186.684239 
L 374.451406 32.994202 
L 238.762517 32.994202 
z
" clip-path="url(#p953c8249cf)" style="fill: #dcd7e0"/>
   </g>
   <g id="matplotlib.axis_1">
    <g id="xtick_1">
     <g id="line2d_1">
      <defs>
       <path id="m7267dcb832" d="M 0 0 
L 0 3.5 
" style="stroke: #1a1a2e; stroke-width: 0.6"/>
      </defs>
      <g>
       <use xlink:href="#m7267dcb832" x="136.995851" y="231.27824" style="fill: #1a1a2e; stroke: #1a1a2e; stroke-width: 0.6"/>
      </g>
     </g>
     <g id="text_1">
      <!-- Opus -->
      <g style="fill: #1a1a2e" transform="translate(124.220382 246.593552) scale(0.11 -0.11)">
       <defs>
        <path id="Georgia-4f" d="M 3888 3909 
Q 4181 3603 4347 3170 
Q 4513 2738 4513 2213 
Q 4513 1684 4344 1253 
Q 4175 822 3875 519 
Q 3584 219 3200 56 
Q 2816 -106 2381 -106 
Q 1919 -106 1526 67 
Q 1134 241 853 550 
Q 572 853 411 1286 
Q 250 1719 250 2213 
Q 250 2753 419 3176 
Q 588 3600 884 3909 
Q 1178 4216 1567 4378 
Q 1956 4541 2381 4541 
Q 2822 4541 3212 4375 
Q 3603 4209 3888 3909 
z
M 3422 766 
Q 3597 1050 3676 1409 
Q 3756 1769 3756 2213 
Q 3756 2669 3667 3050 
Q 3578 3431 3406 3700 
Q 3234 3966 2975 4114 
Q 2716 4263 2381 4263 
Q 2006 4263 1743 4091 
Q 1481 3919 1316 3631 
Q 1159 3356 1082 2987 
Q 1006 2619 1006 2213 
Q 1006 1763 1087 1400 
Q 1169 1038 1344 756 
Q 1513 481 1769 326 
Q 2025 172 2381 172 
Q 2716 172 2984 328 
Q 3253 484 3422 766 
z
" transform="scale(0.015625)"/>
        <path id="Georgia-70" d="M 3041 2716 
Q 3225 2497 3326 2208 
Q 3428 1919 3428 1547 
Q 3428 1181 3306 879 
Q 3184 578 2984 366 
Q 2775 150 2519 34 
Q 2263 -81 1975 -81 
Q 1697 -81 1519 -18 
Q 1341 44 1228 128 
L 1203 128 
L 1203 -797 
Q 1203 -909 1247 -984 
Q 1291 -1059 1381 -1094 
Q 1456 -1122 1595 -1148 
Q 1734 -1175 1825 -1178 
L 1825 -1388 
L 103 -1388 
L 103 -1178 
Q 200 -1172 290 -1162 
Q 381 -1153 453 -1131 
Q 547 -1100 584 -1022 
Q 622 -944 622 -838 
L 622 2441 
Q 622 2534 575 2621 
Q 528 2709 453 2763 
Q 397 2800 297 2820 
Q 197 2841 103 2847 
L 103 3050 
L 1153 3119 
L 1197 3081 
L 1197 2734 
L 1222 2728 
Q 1384 2916 1625 3041 
Q 1866 3166 2103 3166 
Q 2391 3166 2630 3044 
Q 2869 2922 3041 2716 
z
M 2531 500 
Q 2656 694 2715 950 
Q 2775 1206 2775 1522 
Q 2775 1753 2725 1993 
Q 2675 2234 2569 2413 
Q 2463 2594 2291 2706 
Q 2119 2819 1878 2819 
Q 1647 2819 1484 2717 
Q 1322 2616 1203 2475 
L 1203 653 
Q 1231 569 1295 478 
Q 1359 388 1438 322 
Q 1534 244 1646 195 
Q 1759 147 1922 147 
Q 2097 147 2259 239 
Q 2422 331 2531 500 
z
" transform="scale(0.015625)"/>
        <path id="Georgia-75" d="M 3528 56 
L 2525 -13 
L 2478 31 
L 2478 422 
L 2459 422 
Q 2384 344 2290 255 
Q 2197 166 2075 94 
Q 1934 9 1803 -34 
Q 1672 -78 1431 -78 
Q 1022 -78 808 189 
Q 594 456 594 966 
L 594 2441 
Q 594 2553 551 2629 
Q 509 2706 428 2763 
Q 372 2800 287 2817 
Q 203 2834 109 2841 
L 109 3044 
L 1138 3119 
L 1184 3075 
L 1184 934 
Q 1184 600 1334 431 
Q 1484 263 1694 263 
Q 1866 263 2000 316 
Q 2134 369 2225 441 
Q 2309 506 2373 579 
Q 2438 653 2472 716 
L 2472 2463 
Q 2472 2566 2428 2645 
Q 2384 2725 2306 2781 
Q 2250 2819 2139 2826 
Q 2028 2834 1891 2841 
L 1891 3044 
L 3009 3119 
L 3056 3075 
L 3056 628 
Q 3056 522 3100 447 
Q 3144 372 3222 319 
Q 3278 284 3356 273 
Q 3434 263 3528 259 
L 3528 56 
z
" transform="scale(0.015625)"/>
        <path id="Georgia-73" d="M 2259 1509 
Q 2388 1397 2456 1250 
Q 2525 1103 2525 891 
Q 2525 463 2204 191 
Q 1884 -81 1375 -81 
Q 1106 -81 879 16 
Q 653 113 556 194 
L 494 -9 
L 259 -9 
L 228 1063 
L 444 1063 
Q 469 941 550 778 
Q 631 616 747 484 
Q 869 347 1039 253 
Q 1209 159 1422 159 
Q 1722 159 1884 295 
Q 2047 431 2047 684 
Q 2047 816 1995 911 
Q 1944 1006 1844 1078 
Q 1741 1150 1591 1208 
Q 1441 1266 1256 1322 
Q 1109 1366 929 1442 
Q 750 1519 622 1622 
Q 484 1731 396 1890 
Q 309 2050 309 2266 
Q 309 2644 590 2906 
Q 872 3169 1344 3169 
Q 1525 3169 1714 3122 
Q 1903 3075 2022 3009 
L 2094 3172 
L 2319 3172 
L 2366 2181 
L 2150 2181 
Q 2084 2513 1867 2720 
Q 1650 2928 1338 2928 
Q 1081 2928 934 2800 
Q 788 2672 788 2491 
Q 788 2350 836 2256 
Q 884 2163 981 2097 
Q 1075 2034 1217 1979 
Q 1359 1925 1569 1856 
Q 1775 1791 1958 1703 
Q 2141 1616 2259 1509 
z
" transform="scale(0.015625)"/>
       </defs>
       <use xlink:href="#Georgia-4f"/>
       <use xlink:href="#Georgia-70" transform="translate(74.414062 0)"/>
       <use xlink:href="#Georgia-75" transform="translate(131.542969 0)"/>
       <use xlink:href="#Georgia-73" transform="translate(189.0625 0)"/>
      </g>
     </g>
    </g>
    <g id="xtick_2">
     <g id="line2d_2">
      <g>
       <use xlink:href="#m7267dcb832" x="306.606962" y="231.27824" style="fill: #1a1a2e; stroke: #1a1a2e; stroke-width: 0.6"/>
      </g>
     </g>
     <g id="text_2">
      <!-- Llama -->
      <g style="fill: #1a1a2e" transform="translate(291.325556 246.593552) scale(0.11 -0.11)">
       <defs>
        <path id="Georgia-4c" d="M 3866 1319 
L 3772 0 
L 306 0 
L 306 222 
Q 381 228 523 243 
Q 666 259 722 284 
Q 816 325 858 403 
Q 900 481 900 603 
L 900 3778 
Q 900 3884 864 3965 
Q 828 4047 722 4097 
Q 650 4134 520 4170 
Q 391 4206 306 4213 
L 306 4434 
L 2178 4434 
L 2178 4213 
Q 2091 4209 1952 4181 
Q 1813 4153 1750 4131 
Q 1644 4094 1605 4003 
Q 1566 3913 1566 3809 
L 1566 831 
Q 1566 625 1586 511 
Q 1606 397 1681 334 
Q 1753 278 1895 261 
Q 2038 244 2294 244 
Q 2409 244 2534 250 
Q 2659 256 2772 275 
Q 2881 294 2973 326 
Q 3066 359 3109 409 
Q 3238 553 3408 845 
Q 3578 1138 3644 1319 
L 3866 1319 
z
" transform="scale(0.015625)"/>
        <path id="Georgia-6c" d="M 1669 0 
L 166 0 
L 166 206 
Q 238 213 319 220 
Q 400 228 453 244 
Q 541 272 584 342 
Q 628 413 628 525 
L 628 4094 
Q 628 4206 579 4304 
Q 531 4403 453 4459 
Q 397 4497 247 4528 
Q 97 4559 6 4566 
L 6 4766 
L 1166 4838 
L 1209 4791 
L 1209 563 
Q 1209 453 1250 383 
Q 1291 313 1381 275 
Q 1450 244 1517 228 
Q 1584 213 1669 206 
L 1669 0 
z
" transform="scale(0.015625)"/>
        <path id="Georgia-61" d="M 3144 56 
Q 2997 3 2886 -30 
Q 2775 -63 2634 -63 
Q 2391 -63 2245 51 
Q 2100 166 2059 384 
L 2041 384 
Q 1838 159 1605 40 
Q 1372 -78 1044 -78 
Q 697 -78 473 134 
Q 250 347 250 691 
Q 250 869 300 1009 
Q 350 1150 450 1263 
Q 528 1356 656 1429 
Q 784 1503 897 1547 
Q 1038 1600 1467 1744 
Q 1897 1888 2047 1969 
L 2047 2278 
Q 2047 2319 2030 2434 
Q 2013 2550 1956 2653 
Q 1894 2769 1780 2855 
Q 1666 2941 1456 2941 
Q 1313 2941 1189 2892 
Q 1066 2844 1016 2791 
Q 1016 2728 1045 2606 
Q 1075 2484 1075 2381 
Q 1075 2272 976 2181 
Q 878 2091 703 2091 
Q 547 2091 473 2202 
Q 400 2313 400 2450 
Q 400 2594 501 2725 
Q 603 2856 766 2959 
Q 906 3047 1106 3108 
Q 1306 3169 1497 3169 
Q 1759 3169 1954 3133 
Q 2150 3097 2309 2978 
Q 2469 2863 2551 2664 
Q 2634 2466 2634 2153 
Q 2634 1706 2625 1361 
Q 2616 1016 2616 606 
Q 2616 484 2658 412 
Q 2700 341 2788 291 
Q 2834 263 2936 259 
Q 3038 256 3144 256 
L 3144 56 
z
M 2053 1706 
Q 1788 1628 1588 1553 
Q 1388 1478 1216 1366 
Q 1059 1259 968 1114 
Q 878 969 878 769 
Q 878 509 1014 387 
Q 1150 266 1359 266 
Q 1581 266 1750 373 
Q 1919 481 2034 628 
L 2053 1706 
z
" transform="scale(0.015625)"/>
        <path id="Georgia-6d" d="M 5503 0 
L 4000 0 
L 4000 206 
Q 4072 213 4145 219 
Q 4219 225 4275 244 
Q 4363 272 4405 342 
Q 4447 413 4447 525 
L 4447 2116 
Q 4447 2441 4298 2617 
Q 4150 2794 3928 2794 
Q 3775 2794 3640 2747 
Q 3506 2700 3394 2616 
Q 3303 2547 3242 2467 
Q 3181 2388 3150 2334 
L 3150 556 
Q 3150 447 3187 376 
Q 3225 306 3316 269 
Q 3388 241 3445 227 
Q 3503 213 3597 206 
L 3597 0 
L 2125 0 
L 2125 206 
Q 2197 213 2264 219 
Q 2331 225 2388 244 
Q 2475 272 2517 342 
Q 2559 413 2559 525 
L 2559 2116 
Q 2559 2441 2411 2617 
Q 2263 2794 2041 2794 
Q 1888 2794 1753 2745 
Q 1619 2697 1506 2613 
Q 1416 2544 1353 2458 
Q 1291 2372 1259 2328 
L 1259 563 
Q 1259 456 1303 384 
Q 1347 313 1434 275 
Q 1500 244 1569 228 
Q 1638 213 1722 206 
L 1722 0 
L 225 0 
L 225 206 
Q 297 213 373 219 
Q 450 225 506 244 
Q 594 272 636 342 
Q 678 413 678 525 
L 678 2441 
Q 678 2541 633 2620 
Q 588 2700 506 2756 
Q 447 2794 359 2817 
Q 272 2841 178 2847 
L 178 3050 
L 1209 3119 
L 1253 3075 
L 1253 2634 
L 1275 2634 
Q 1353 2713 1465 2819 
Q 1578 2925 1675 2991 
Q 1784 3066 1948 3116 
Q 2113 3166 2303 3166 
Q 2603 3166 2818 3005 
Q 3034 2844 3128 2616 
Q 3241 2725 3327 2808 
Q 3413 2891 3553 2984 
Q 3672 3066 3833 3116 
Q 3994 3166 4191 3166 
Q 4581 3166 4809 2909 
Q 5038 2653 5038 2122 
L 5038 556 
Q 5038 447 5075 376 
Q 5113 306 5203 269 
Q 5275 241 5345 227 
Q 5416 213 5503 206 
L 5503 0 
z
" transform="scale(0.015625)"/>
       </defs>
       <use xlink:href="#Georgia-4c"/>
       <use xlink:href="#Georgia-6c" transform="translate(60.351562 0)"/>
       <use xlink:href="#Georgia-61" transform="translate(88.964844 0)"/>
       <use xlink:href="#Georgia-6d" transform="translate(139.355469 0)"/>
       <use xlink:href="#Georgia-61" transform="translate(227.441406 0)"/>
      </g>
     </g>
    </g>
   </g>
   <g id="matplotlib.axis_2">
    <g id="ytick_1">
     <g id="line2d_3">
      <defs>
       <path id="m849c8806e0" d="M 0 0 
L -3.5 0 
" style="stroke: #1a1a2e; stroke-width: 0.6"/>
      </defs>
      <g>
       <use xlink:href="#m849c8806e0" x="53.886406" y="231.27824" style="fill: #1a1a2e; stroke: #1a1a2e; stroke-width: 0.6"/>
      </g>
     </g>
     <g id="text_3">
      <!-- 0 -->
      <g style="fill: #1a1a2e" transform="translate(40.135156 235.435896) scale(0.11 -0.11)">
       <defs>
        <path id="Georgia-30" d="M 3209 2919 
Q 3409 2678 3507 2354 
Q 3606 2031 3606 1678 
Q 3606 1253 3484 917 
Q 3363 581 3150 359 
Q 2931 131 2631 15 
Q 2331 -100 1963 -100 
Q 1559 -100 1243 34 
Q 928 169 731 403 
Q 525 647 423 973 
Q 322 1300 322 1678 
Q 322 2050 420 2362 
Q 519 2675 728 2928 
Q 928 3172 1243 3312 
Q 1559 3453 1966 3453 
Q 2394 3453 2700 3309 
Q 3006 3166 3209 2919 
z
M 2916 1678 
Q 2916 2422 2661 2831 
Q 2406 3241 1969 3241 
Q 1525 3241 1269 2831 
Q 1013 2422 1013 1678 
Q 1013 972 1258 542 
Q 1503 113 1963 113 
Q 2422 113 2669 542 
Q 2916 972 2916 1678 
z
" transform="scale(0.015625)"/>
       </defs>
       <use xlink:href="#Georgia-30"/>
      </g>
     </g>
    </g>
    <g id="ytick_2">
     <g id="line2d_4">
      <g>
       <use xlink:href="#m849c8806e0" x="53.886406" y="191.462168" style="fill: #1a1a2e; stroke: #1a1a2e; stroke-width: 0.6"/>
      </g>
     </g>
     <g id="text_4">
      <!-- 200 -->
      <g style="fill: #1a1a2e" transform="translate(27.239375 195.619824) scale(0.11 -0.11)">
       <defs>
        <path id="Georgia-32" d="M 3272 0 
L 344 0 
L 344 425 
Q 428 522 578 642 
Q 728 763 934 903 
Q 1059 988 1234 1088 
Q 1409 1188 1631 1306 
Q 1878 1438 2011 1538 
Q 2144 1638 2253 1784 
Q 2325 1881 2369 2026 
Q 2413 2172 2413 2441 
Q 2413 2831 2203 3014 
Q 1994 3197 1666 3197 
Q 1463 3197 1281 3117 
Q 1100 3038 1009 2897 
Q 1031 2797 1064 2659 
Q 1097 2522 1097 2391 
Q 1097 2272 998 2180 
Q 900 2088 706 2088 
Q 550 2088 465 2195 
Q 381 2303 381 2484 
Q 381 2653 475 2823 
Q 569 2994 744 3138 
Q 916 3278 1169 3365 
Q 1422 3453 1716 3453 
Q 2356 3453 2732 3167 
Q 3109 2881 3109 2403 
Q 3109 2175 3042 1987 
Q 2975 1800 2825 1656 
Q 2659 1497 2437 1383 
Q 2216 1269 1759 1066 
Q 1488 944 1253 811 
Q 1019 678 869 553 
L 3272 553 
L 3272 0 
z
" transform="scale(0.015625)"/>
       </defs>
       <use xlink:href="#Georgia-32"/>
       <use xlink:href="#Georgia-30" transform="translate(55.859375 0)"/>
       <use xlink:href="#Georgia-30" transform="translate(117.236328 0)"/>
      </g>
     </g>
    </g>
    <g id="ytick_3">
     <g id="line2d_5">
      <g>
       <use xlink:href="#m849c8806e0" x="53.886406" y="151.646096" style="fill: #1a1a2e; stroke: #1a1a2e; stroke-width: 0.6"/>
      </g>
     </g>
     <g id="text_5">
      <!-- 400 -->
      <g style="fill: #1a1a2e" transform="translate(27.168906 155.803752) scale(0.11 -0.11)">
       <defs>
        <path id="Georgia-34" d="M 3388 281 
L 2753 281 
L 2753 -1141 
L 2153 -1141 
L 2153 281 
L 153 281 
L 153 763 
L 2344 3434 
L 2753 3434 
L 2753 691 
L 3388 691 
L 3388 281 
z
M 2153 691 
L 2153 2738 
L 466 691 
L 2153 691 
z
" transform="scale(0.015625)"/>
       </defs>
       <use xlink:href="#Georgia-34"/>
       <use xlink:href="#Georgia-30" transform="translate(56.494141 0)"/>
       <use xlink:href="#Georgia-30" transform="translate(117.871094 0)"/>
      </g>
     </g>
    </g>
    <g id="ytick_4">
     <g id="line2d_6">
      <g>
       <use xlink:href="#m849c8806e0" x="53.886406" y="111.830024" style="fill: #1a1a2e; stroke: #1a1a2e; stroke-width: 0.6"/>
      </g>
     </g>
     <g id="text_6">
      <!-- 600 -->
      <g style="fill: #1a1a2e" transform="translate(27.158594 115.987681) scale(0.11 -0.11)">
       <defs>
        <path id="Georgia-36" d="M 3359 1441 
Q 3359 1116 3242 831 
Q 3125 547 2928 347 
Q 2700 119 2423 9 
Q 2147 -100 1847 -100 
Q 1500 -100 1219 28 
Q 938 156 741 391 
Q 541 628 431 972 
Q 322 1316 322 1744 
Q 322 2859 986 3625 
Q 1650 4391 2766 4544 
L 2822 4263 
L 2541 4213 
Q 1863 3994 1492 3531 
Q 1122 3069 1013 2409 
Q 1281 2644 1543 2741 
Q 1806 2838 2097 2838 
Q 2619 2838 2989 2438 
Q 3359 2038 3359 1441 
z
M 2681 1356 
Q 2681 1863 2448 2169 
Q 2216 2475 1825 2475 
Q 1591 2475 1389 2387 
Q 1188 2300 1000 2094 
Q 997 2056 990 1920 
Q 984 1784 984 1706 
Q 984 975 1223 561 
Q 1463 147 1853 147 
Q 2225 147 2453 470 
Q 2681 794 2681 1356 
z
" transform="scale(0.015625)"/>
       </defs>
       <use xlink:href="#Georgia-36"/>
       <use xlink:href="#Georgia-30" transform="translate(56.591797 0)"/>
       <use xlink:href="#Georgia-30" transform="translate(117.96875 0)"/>
      </g>
     </g>
    </g>
    <g id="ytick_5">
     <g id="line2d_7">
      <g>
       <use xlink:href="#m849c8806e0" x="53.886406" y="72.013952" style="fill: #1a1a2e; stroke: #1a1a2e; stroke-width: 0.6"/>
      </g>
     </g>
     <g id="text_7">
      <!-- 800 -->
      <g style="fill: #1a1a2e" transform="translate(26.825156 76.171609) scale(0.11 -0.11)">
       <defs>
        <path id="Georgia-38" d="M 3491 1175 
Q 3491 650 3037 272 
Q 2584 -106 1847 -106 
Q 1156 -106 740 241 
Q 325 588 325 1134 
Q 325 1538 570 1808 
Q 816 2078 1297 2266 
Q 900 2488 703 2753 
Q 506 3019 506 3353 
Q 506 3863 939 4206 
Q 1372 4550 1975 4550 
Q 2578 4550 2951 4225 
Q 3325 3900 3325 3409 
Q 3325 3094 3119 2811 
Q 2913 2528 2513 2347 
Q 3031 2125 3261 1856 
Q 3491 1588 3491 1175 
z
M 2734 3444 
Q 2734 3825 2507 4064 
Q 2281 4303 1928 4303 
Q 1575 4303 1350 4073 
Q 1125 3844 1125 3503 
Q 1125 3175 1381 2947 
Q 1638 2719 2294 2459 
Q 2528 2609 2631 2856 
Q 2734 3103 2734 3444 
z
M 2866 1028 
Q 2866 1225 2781 1373 
Q 2697 1522 2538 1644 
Q 2384 1763 2111 1892 
Q 1838 2022 1519 2156 
Q 1219 1994 1078 1742 
Q 938 1491 938 1169 
Q 938 709 1208 426 
Q 1478 144 1928 144 
Q 2359 144 2612 394 
Q 2866 644 2866 1028 
z
" transform="scale(0.015625)"/>
       </defs>
       <use xlink:href="#Georgia-38"/>
       <use xlink:href="#Georgia-30" transform="translate(59.619141 0)"/>
       <use xlink:href="#Georgia-30" transform="translate(120.996094 0)"/>
      </g>
     </g>
    </g>
    <g id="ytick_6">
     <g id="line2d_8">
      <g>
       <use xlink:href="#m849c8806e0" x="53.886406" y="32.19788" style="fill: #1a1a2e; stroke: #1a1a2e; stroke-width: 0.6"/>
      </g>
     </g>
     <g id="text_8">
      <!-- 1000 -->
      <g style="fill: #1a1a2e" transform="translate(21.906094 36.355537) scale(0.11 -0.11)">
       <defs>
        <path id="Georgia-31" d="M 2528 0 
L 422 0 
L 422 222 
Q 516 228 714 248 
Q 913 269 988 291 
Q 1084 322 1136 392 
Q 1188 463 1188 603 
L 1188 2797 
L 409 2797 
L 409 3059 
L 581 3059 
Q 919 3059 1186 3184 
Q 1453 3309 1569 3453 
L 1828 3453 
Q 1819 3250 1809 2978 
Q 1800 2706 1800 2491 
L 1800 638 
Q 1800 528 1848 442 
Q 1897 356 1988 316 
Q 2069 281 2253 253 
Q 2438 225 2528 222 
L 2528 0 
z
" transform="scale(0.015625)"/>
       </defs>
       <use xlink:href="#Georgia-31"/>
       <use xlink:href="#Georgia-30" transform="translate(42.96875 0)"/>
       <use xlink:href="#Georgia-30" transform="translate(104.345703 0)"/>
       <use xlink:href="#Georgia-30" transform="translate(165.722656 0)"/>
      </g>
     </g>
    </g>
    <g id="text_9">
     <!-- samples (of 996) -->
     <g style="fill: #1a1a2e" transform="translate(15.520469 167.794042) rotate(-90) scale(0.11 -0.11)">
      <defs>
       <path id="Georgia-65" d="M 2963 725 
Q 2769 356 2444 137 
Q 2119 -81 1697 -81 
Q 1325 -81 1045 50 
Q 766 181 584 406 
Q 403 631 314 931 
Q 225 1231 225 1566 
Q 225 1866 320 2155 
Q 416 2444 600 2675 
Q 778 2897 1042 3033 
Q 1306 3169 1634 3169 
Q 1972 3169 2212 3062 
Q 2453 2956 2603 2772 
Q 2747 2597 2817 2359 
Q 2888 2122 2888 1844 
L 2888 1638 
L 847 1638 
Q 847 1334 905 1087 
Q 963 841 1088 653 
Q 1209 472 1406 367 
Q 1603 263 1875 263 
Q 2153 263 2354 392 
Q 2556 522 2744 859 
L 2963 725 
z
M 2272 1900 
Q 2272 2075 2242 2275 
Q 2213 2475 2147 2609 
Q 2075 2753 1950 2843 
Q 1825 2934 1628 2934 
Q 1300 2934 1083 2661 
Q 866 2388 847 1900 
L 2272 1900 
z
" transform="scale(0.015625)"/>
       <path id="Georgia-20" transform="scale(0.015625)"/>
       <path id="Georgia-28" d="M 2191 -1025 
Q 1338 -919 852 -165 
Q 366 588 366 1863 
Q 366 3159 852 3917 
Q 1338 4675 2191 4788 
L 2191 4528 
Q 1591 4419 1278 3762 
Q 966 3106 966 1856 
Q 966 666 1272 5 
Q 1578 -656 2191 -769 
L 2191 -1025 
z
" transform="scale(0.015625)"/>
       <path id="Georgia-6f" d="M 3228 1572 
Q 3228 1247 3125 933 
Q 3022 619 2831 400 
Q 2616 150 2331 28 
Q 2047 -94 1694 -94 
Q 1400 -94 1134 17 
Q 869 128 663 341 
Q 459 550 339 851 
Q 219 1153 219 1528 
Q 219 2250 639 2709 
Q 1059 3169 1741 3169 
Q 2388 3169 2808 2733 
Q 3228 2297 3228 1572 
z
M 2581 1566 
Q 2581 1800 2534 2061 
Q 2488 2322 2394 2503 
Q 2294 2697 2131 2814 
Q 1969 2931 1734 2931 
Q 1494 2931 1323 2812 
Q 1153 2694 1047 2488 
Q 947 2297 906 2053 
Q 866 1809 866 1581 
Q 866 1281 914 1026 
Q 963 772 1069 572 
Q 1175 372 1336 258 
Q 1497 144 1734 144 
Q 2125 144 2353 522 
Q 2581 900 2581 1566 
z
" transform="scale(0.015625)"/>
       <path id="Georgia-66" d="M 2519 4466 
Q 2519 4325 2444 4228 
Q 2369 4131 2216 4131 
Q 2119 4131 2045 4172 
Q 1972 4213 1909 4281 
Q 1847 4350 1794 4437 
Q 1741 4525 1703 4578 
Q 1494 4569 1380 4286 
Q 1266 4003 1266 3384 
L 1266 3069 
L 2059 3069 
L 2059 2769 
L 1266 2769 
L 1266 556 
Q 1266 447 1308 378 
Q 1350 309 1441 275 
Q 1516 247 1641 230 
Q 1766 213 1856 206 
L 1856 0 
L 231 0 
L 231 206 
Q 303 213 379 219 
Q 456 225 513 244 
Q 600 272 642 342 
Q 684 413 684 525 
L 684 2769 
L 75 2769 
L 75 3069 
L 684 3069 
L 684 3266 
Q 684 3969 1048 4405 
Q 1413 4841 1959 4841 
Q 2238 4841 2378 4731 
Q 2519 4622 2519 4466 
z
" transform="scale(0.015625)"/>
       <path id="Georgia-39" d="M 3300 1613 
Q 3300 1069 3128 589 
Q 2956 109 2634 -253 
Q 2319 -609 1864 -845 
Q 1409 -1081 847 -1156 
L 791 -875 
L 1072 -825 
Q 1744 -613 2122 -172 
Q 2500 269 2609 947 
Q 2353 728 2098 626 
Q 1844 525 1525 525 
Q 1016 525 639 922 
Q 263 1319 263 1922 
Q 263 2569 698 3012 
Q 1134 3456 1775 3456 
Q 2472 3456 2886 2959 
Q 3300 2463 3300 1613 
z
M 2638 1650 
Q 2638 2381 2398 2795 
Q 2159 3209 1769 3209 
Q 1397 3209 1169 2889 
Q 941 2569 941 2006 
Q 941 1500 1173 1194 
Q 1406 888 1797 888 
Q 2041 888 2244 977 
Q 2447 1066 2622 1263 
Q 2622 1275 2626 1312 
Q 2631 1350 2631 1419 
Q 2631 1463 2634 1525 
Q 2638 1588 2638 1650 
z
" transform="scale(0.015625)"/>
       <path id="Georgia-29" d="M 2034 1863 
Q 2034 588 1548 -165 
Q 1063 -919 209 -1025 
L 209 -769 
Q 822 -656 1128 5 
Q 1434 666 1434 1856 
Q 1434 3106 1121 3762 
Q 809 4419 209 4528 
L 209 4788 
Q 1063 4675 1548 3917 
Q 2034 3159 2034 1863 
z
" transform="scale(0.015625)"/>
      </defs>
      <use xlink:href="#Georgia-73"/>
      <use xlink:href="#Georgia-61" transform="translate(43.212891 0)"/>
      <use xlink:href="#Georgia-6d" transform="translate(93.603516 0)"/>
      <use xlink:href="#Georgia-70" transform="translate(181.689453 0)"/>
      <use xlink:href="#Georgia-6c" transform="translate(238.818359 0)"/>
      <use xlink:href="#Georgia-65" transform="translate(267.431641 0)"/>
      <use xlink:href="#Georgia-73" transform="translate(315.771484 0)"/>
      <use xlink:href="#Georgia-20" transform="translate(358.984375 0)"/>
      <use xlink:href="#Georgia-28" transform="translate(383.105469 0)"/>
      <use xlink:href="#Georgia-6f" transform="translate(420.605469 0)"/>
      <use xlink:href="#Georgia-66" transform="translate(474.511719 0)"/>
      <use xlink:href="#Georgia-20" transform="translate(507.03125 0)"/>
      <use xlink:href="#Georgia-39" transform="translate(531.152344 0)"/>
      <use xlink:href="#Georgia-39" transform="translate(587.744141 0)"/>
      <use xlink:href="#Georgia-36" transform="translate(644.335938 0)"/>
      <use xlink:href="#Georgia-29" transform="translate(700.927734 0)"/>
     </g>
    </g>
   </g>
   <g id="patch_9">
    <path d="M 53.886406 231.27824 
L 53.886406 23.08 
" style="fill: none; stroke: #1a1a2e; stroke-width: 0.6; stroke-linejoin: miter; stroke-linecap: square"/>
   </g>
   <g id="patch_10">
    <path d="M 53.886406 231.27824 
L 389.716406 231.27824 
" style="fill: none; stroke: #1a1a2e; stroke-width: 0.6; stroke-linejoin: miter; stroke-linecap: square"/>
   </g>
   <g id="patch_11">
    <path d="M 181.369266 214.118575 
Q 160.118289 222.050524 139.914761 229.591512 
" style="fill: none; stroke: #6e6e6e; stroke-linecap: round"/>
    <path d="M 143.916917 230.019001 
L 139.914761 229.591512 
L 142.658046 226.646281 
" style="fill: none; stroke: #6e6e6e; stroke-linecap: round"/>
   </g>
   <g id="text_10">
    <!-- moved = 3 -->
    <g style="fill: #6e6e6e" transform="translate(179.398628 209.466996) scale(0.09 -0.09)">
     <defs>
      <path id="Georgia-76" d="M 3269 2891 
Q 3128 2866 3001 2789 
Q 2875 2713 2784 2519 
Q 2600 2100 2403 1645 
Q 2206 1191 1994 691 
Q 1931 547 1861 350 
Q 1791 153 1731 -28 
L 1488 -28 
Q 1191 706 941 1311 
Q 691 1916 422 2550 
Q 359 2694 220 2773 
Q 81 2853 -59 2875 
L -59 3081 
L 1366 3081 
L 1366 2863 
Q 1272 2859 1131 2823 
Q 991 2788 991 2725 
Q 991 2716 1006 2677 
Q 1022 2638 1038 2588 
Q 1166 2269 1400 1697 
Q 1634 1125 1781 775 
Q 1894 1044 2064 1444 
Q 2234 1844 2431 2338 
Q 2463 2422 2491 2495 
Q 2519 2569 2519 2644 
Q 2519 2697 2467 2739 
Q 2416 2781 2344 2813 
Q 2272 2844 2203 2859 
Q 2134 2875 2091 2881 
L 2091 3081 
L 3269 3081 
L 3269 2891 
z
" transform="scale(0.015625)"/>
      <path id="Georgia-64" d="M 3600 56 
L 2525 -13 
L 2478 31 
L 2478 319 
L 2453 325 
Q 2291 144 2052 28 
Q 1813 -88 1559 -88 
Q 1297 -88 1051 29 
Q 806 147 625 359 
Q 441 575 333 878 
Q 225 1181 225 1547 
Q 225 1881 340 2181 
Q 456 2481 659 2706 
Q 850 2916 1126 3041 
Q 1403 3166 1691 3166 
Q 1906 3166 2114 3111 
Q 2322 3056 2472 2972 
L 2472 4044 
Q 2472 4175 2428 4283 
Q 2384 4391 2306 4447 
Q 2219 4506 2070 4532 
Q 1922 4559 1750 4572 
L 1750 4766 
L 3009 4838 
L 3056 4791 
L 3056 634 
Q 3056 525 3098 448 
Q 3141 372 3222 319 
Q 3281 281 3393 272 
Q 3506 263 3600 259 
L 3600 56 
z
M 2472 597 
L 2472 2400 
Q 2447 2481 2390 2575 
Q 2334 2669 2250 2747 
Q 2159 2825 2037 2876 
Q 1916 2928 1753 2928 
Q 1566 2928 1408 2831 
Q 1250 2734 1128 2553 
Q 1013 2378 945 2108 
Q 878 1838 878 1509 
Q 878 1247 928 1033 
Q 978 819 1097 634 
Q 1206 459 1376 353 
Q 1547 247 1781 247 
Q 2031 247 2195 356 
Q 2359 466 2472 597 
z
" transform="scale(0.015625)"/>
      <path id="Georgia-3d" d="M 3634 2134 
L 481 2134 
L 481 2525 
L 3634 2525 
L 3634 2134 
z
M 3634 972 
L 481 972 
L 481 1363 
L 3634 1363 
L 3634 972 
z
" transform="scale(0.015625)"/>
      <path id="Georgia-33" d="M 1522 -1141 
Q 1228 -1141 984 -1067 
Q 741 -994 566 -869 
Q 391 -744 295 -581 
Q 200 -419 200 -247 
Q 200 -94 275 29 
Q 350 153 516 153 
Q 703 153 801 61 
Q 900 -31 900 -150 
Q 900 -250 867 -403 
Q 834 -556 816 -622 
Q 838 -650 895 -697 
Q 953 -744 1038 -781 
Q 1138 -828 1247 -856 
Q 1356 -884 1556 -884 
Q 1744 -884 1917 -821 
Q 2091 -759 2222 -622 
Q 2359 -478 2436 -286 
Q 2513 -94 2513 219 
Q 2513 388 2477 553 
Q 2441 719 2344 841 
Q 2247 963 2080 1030 
Q 1913 1097 1656 1097 
L 1247 1097 
L 1247 1456 
L 1519 1456 
Q 1950 1456 2140 1693 
Q 2331 1931 2331 2409 
Q 2331 2800 2147 2998 
Q 1963 3197 1625 3197 
Q 1463 3197 1358 3158 
Q 1253 3119 1188 3081 
Q 1109 3038 1059 2984 
Q 1009 2931 984 2906 
Q 1006 2806 1037 2661 
Q 1069 2516 1069 2384 
Q 1069 2269 970 2176 
Q 872 2084 681 2084 
Q 516 2084 439 2203 
Q 363 2322 363 2478 
Q 363 2641 453 2809 
Q 544 2978 722 3125 
Q 900 3272 1156 3362 
Q 1413 3453 1747 3453 
Q 2131 3453 2382 3339 
Q 2634 3225 2778 3063 
Q 2919 2903 2972 2728 
Q 3025 2553 3025 2428 
Q 3025 2272 2981 2114 
Q 2938 1956 2838 1822 
Q 2728 1675 2548 1554 
Q 2369 1434 2097 1359 
L 2097 1309 
Q 2272 1294 2470 1231 
Q 2669 1169 2828 1047 
Q 2994 919 3100 717 
Q 3206 516 3206 206 
Q 3206 -394 2725 -767 
Q 2244 -1141 1522 -1141 
z
" transform="scale(0.015625)"/>
     </defs>
     <use xlink:href="#Georgia-6d"/>
     <use xlink:href="#Georgia-6f" transform="translate(88.085938 0)"/>
     <use xlink:href="#Georgia-76" transform="translate(141.992188 0)"/>
     <use xlink:href="#Georgia-65" transform="translate(191.650391 0)"/>
     <use xlink:href="#Georgia-64" transform="translate(239.990234 0)"/>
     <use xlink:href="#Georgia-20" transform="translate(297.412109 0)"/>
     <use xlink:href="#Georgia-3d" transform="translate(321.533203 0)"/>
     <use xlink:href="#Georgia-20" transform="translate(385.839844 0)"/>
     <use xlink:href="#Georgia-33" transform="translate(409.960938 0)"/>
    </g>
   </g>
   <g id="text_11">
    <!-- Susceptibility ($S_i$) -->
    <g style="fill: #1a1a2e" transform="translate(170.451406 17.08) scale(0.13 -0.13)">
     <defs>
      <path id="Georgia-53" d="M 3066 2034 
Q 3206 1878 3273 1692 
Q 3341 1506 3341 1259 
Q 3341 672 2906 290 
Q 2472 -91 1828 -91 
Q 1531 -91 1234 1 
Q 938 94 722 225 
L 588 -3 
L 338 -3 
L 294 1516 
L 547 1516 
Q 625 1234 729 1007 
Q 834 781 1006 584 
Q 1169 400 1386 290 
Q 1603 181 1891 181 
Q 2106 181 2267 237 
Q 2428 294 2528 397 
Q 2628 500 2676 639 
Q 2725 778 2725 959 
Q 2725 1225 2575 1454 
Q 2425 1684 2128 1803 
Q 1925 1884 1662 1982 
Q 1400 2081 1209 2169 
Q 834 2338 626 2611 
Q 419 2884 419 3325 
Q 419 3578 522 3797 
Q 625 4016 816 4188 
Q 997 4350 1244 4442 
Q 1491 4534 1759 4534 
Q 2066 4534 2308 4440 
Q 2550 4347 2750 4222 
L 2878 4434 
L 3128 4434 
L 3153 2963 
L 2900 2963 
Q 2831 3216 2745 3447 
Q 2659 3678 2522 3866 
Q 2388 4047 2194 4155 
Q 2000 4263 1719 4263 
Q 1422 4263 1212 4072 
Q 1003 3881 1003 3606 
Q 1003 3319 1137 3130 
Q 1272 2941 1528 2819 
Q 1756 2709 1976 2629 
Q 2197 2550 2403 2459 
Q 2591 2378 2764 2275 
Q 2938 2172 3066 2034 
z
" transform="scale(0.015625)"/>
      <path id="Georgia-63" d="M 1650 -81 
Q 981 -81 603 362 
Q 225 806 225 1553 
Q 225 1878 326 2161 
Q 428 2444 622 2675 
Q 806 2897 1084 3033 
Q 1363 3169 1691 3169 
Q 2144 3169 2428 2951 
Q 2713 2734 2713 2359 
Q 2713 2203 2638 2083 
Q 2563 1963 2391 1963 
Q 2206 1963 2104 2056 
Q 2003 2150 2003 2266 
Q 2003 2406 2040 2554 
Q 2078 2703 2084 2772 
Q 2028 2869 1917 2901 
Q 1806 2934 1678 2934 
Q 1528 2934 1392 2870 
Q 1256 2806 1128 2634 
Q 1013 2478 941 2212 
Q 869 1947 869 1578 
Q 869 997 1126 630 
Q 1384 263 1803 263 
Q 2106 263 2311 409 
Q 2516 556 2691 850 
L 2891 719 
Q 2684 350 2346 134 
Q 2009 -81 1650 -81 
z
" transform="scale(0.015625)"/>
      <path id="Georgia-74" d="M 2128 134 
Q 1925 50 1744 -8 
Q 1563 -66 1300 -66 
Q 913 -66 755 129 
Q 597 325 597 681 
L 597 2769 
L 41 2769 
L 41 3069 
L 609 3069 
L 609 4028 
L 1178 4028 
L 1178 3069 
L 2063 3069 
L 2063 2769 
L 1184 2769 
L 1184 1047 
Q 1184 853 1198 723 
Q 1213 594 1266 497 
Q 1316 406 1416 359 
Q 1516 313 1684 313 
Q 1763 313 1914 327 
Q 2066 341 2128 363 
L 2128 134 
z
" transform="scale(0.015625)"/>
      <path id="Georgia-69" d="M 1722 0 
L 231 0 
L 231 206 
Q 303 213 379 219 
Q 456 225 513 244 
Q 600 272 642 342 
Q 684 413 684 525 
L 684 2428 
Q 684 2528 639 2611 
Q 594 2694 513 2750 
Q 453 2788 340 2814 
Q 228 2841 134 2847 
L 134 3050 
L 1222 3119 
L 1266 3075 
L 1266 563 
Q 1266 453 1308 381 
Q 1350 309 1441 275 
Q 1509 247 1575 230 
Q 1641 213 1722 206 
L 1722 0 
z
M 1328 4334 
Q 1328 4156 1211 4023 
Q 1094 3891 922 3891 
Q 763 3891 645 4017 
Q 528 4144 528 4306 
Q 528 4478 645 4606 
Q 763 4734 922 4734 
Q 1100 4734 1214 4614 
Q 1328 4494 1328 4334 
z
" transform="scale(0.015625)"/>
      <path id="Georgia-62" d="M 3353 1544 
Q 3353 850 2915 378 
Q 2478 -94 1900 -94 
Q 1647 -94 1401 -15 
Q 1156 63 941 194 
L 709 -166 
L 516 -122 
Q 531 109 537 434 
Q 544 759 544 1063 
L 544 4113 
Q 544 4219 495 4325 
Q 447 4431 372 4478 
Q 313 4519 173 4539 
Q 34 4559 -50 4566 
L -50 4766 
L 1081 4838 
L 1125 4791 
L 1125 2759 
L 1147 2753 
Q 1341 2959 1570 3062 
Q 1800 3166 2022 3166 
Q 2591 3166 2972 2716 
Q 3353 2266 3353 1544 
z
M 2700 1522 
Q 2700 1753 2650 1993 
Q 2600 2234 2494 2413 
Q 2388 2594 2216 2706 
Q 2044 2819 1803 2819 
Q 1584 2819 1420 2733 
Q 1256 2647 1125 2500 
L 1125 706 
Q 1144 631 1198 531 
Q 1253 431 1347 341 
Q 1441 253 1559 198 
Q 1678 144 1850 144 
Q 2231 144 2465 512 
Q 2700 881 2700 1522 
z
" transform="scale(0.015625)"/>
      <path id="Georgia-79" d="M -9 -1006 
Q -9 -850 77 -751 
Q 163 -653 291 -653 
Q 391 -653 462 -690 
Q 534 -728 591 -788 
Q 638 -834 691 -915 
Q 744 -997 775 -1050 
Q 931 -966 1148 -609 
Q 1366 -253 1463 16 
Q 1166 756 925 1340 
Q 684 1925 422 2550 
Q 363 2694 222 2773 
Q 81 2853 -59 2875 
L -59 3081 
L 1347 3081 
L 1347 2863 
Q 1253 2859 1122 2823 
Q 991 2788 991 2741 
Q 991 2722 1005 2678 
Q 1019 2634 1038 2588 
Q 1156 2278 1400 1695 
Q 1644 1113 1778 763 
Q 1919 1097 2070 1455 
Q 2222 1813 2409 2300 
Q 2431 2359 2472 2464 
Q 2513 2569 2513 2644 
Q 2513 2725 2370 2795 
Q 2228 2866 2100 2881 
L 2100 3081 
L 3244 3081 
L 3244 2888 
Q 3150 2872 2997 2780 
Q 2844 2688 2769 2519 
Q 2397 1656 2108 947 
Q 1819 238 1669 -97 
Q 1472 -534 1317 -779 
Q 1163 -1025 1016 -1166 
Q 872 -1297 755 -1342 
Q 638 -1388 513 -1388 
Q 269 -1388 130 -1272 
Q -9 -1156 -9 -1006 
z
" transform="scale(0.015625)"/>
      <path id="Cmmi10-53" d="M 391 -141 
Q 372 -141 356 -119 
Q 341 -97 341 -78 
L 709 1416 
Q 722 1453 763 1453 
L 838 1453 
Q 863 1453 877 1434 
Q 891 1416 891 1388 
Q 838 1169 838 997 
Q 838 534 1156 309 
Q 1475 84 1959 84 
Q 2169 84 2372 187 
Q 2575 291 2726 456 
Q 2878 622 2968 826 
Q 3059 1031 3059 1241 
Q 3059 1466 2940 1642 
Q 2822 1819 2613 1869 
L 1831 2075 
Q 1516 2159 1328 2414 
Q 1141 2669 1141 2988 
Q 1141 3372 1369 3728 
Q 1597 4084 1964 4298 
Q 2331 4513 2713 4513 
Q 3006 4513 3251 4405 
Q 3497 4297 3628 4063 
L 3994 4494 
Q 4031 4513 4038 4513 
L 4078 4513 
Q 4103 4513 4118 4491 
Q 4134 4469 4134 4447 
L 3763 2963 
Q 3753 2919 3713 2919 
L 3634 2919 
Q 3578 2919 3578 2988 
Q 3609 3191 3609 3341 
Q 3609 3638 3507 3858 
Q 3406 4078 3201 4192 
Q 2997 4306 2694 4306 
Q 2438 4306 2184 4159 
Q 1931 4013 1775 3769 
Q 1619 3525 1619 3263 
Q 1619 3056 1739 2897 
Q 1859 2738 2059 2681 
L 2841 2478 
Q 3053 2422 3211 2280 
Q 3369 2138 3450 1942 
Q 3531 1747 3531 1516 
Q 3531 1213 3403 917 
Q 3275 622 3045 378 
Q 2816 134 2525 -3 
Q 2234 -141 1931 -141 
Q 1169 -141 838 306 
L 481 -122 
Q 444 -141 434 -141 
L 391 -141 
z
" transform="scale(0.015625)"/>
      <path id="Cmmi10-69" d="M 500 459 
Q 500 578 550 709 
L 1069 2088 
Q 1153 2322 1153 2472 
Q 1153 2663 1013 2663 
Q 759 2663 595 2402 
Q 431 2141 353 1819 
Q 341 1778 300 1778 
L 225 1778 
Q 172 1778 172 1838 
L 172 1856 
Q 275 2238 487 2533 
Q 700 2828 1025 2828 
Q 1253 2828 1411 2678 
Q 1569 2528 1569 2297 
Q 1569 2178 1516 2047 
L 997 672 
Q 909 459 909 288 
Q 909 97 1056 97 
Q 1306 97 1473 364 
Q 1641 631 1709 941 
Q 1722 978 1759 978 
L 1838 978 
Q 1863 978 1878 961 
Q 1894 944 1894 922 
Q 1894 916 1888 903 
Q 1800 541 1583 234 
Q 1366 -72 1044 -72 
Q 819 -72 659 83 
Q 500 238 500 459 
z
M 1222 3878 
Q 1222 4013 1334 4122 
Q 1447 4231 1581 4231 
Q 1691 4231 1761 4164 
Q 1831 4097 1831 3994 
Q 1831 3850 1717 3742 
Q 1603 3634 1466 3634 
Q 1363 3634 1292 3704 
Q 1222 3775 1222 3878 
z
" transform="scale(0.015625)"/>
     </defs>
     <use xlink:href="#Georgia-53" transform="translate(0 0.40625)"/>
     <use xlink:href="#Georgia-75" transform="translate(56.103516 0.40625)"/>
     <use xlink:href="#Georgia-73" transform="translate(113.623047 0.40625)"/>
     <use xlink:href="#Georgia-63" transform="translate(156.835938 0.40625)"/>
     <use xlink:href="#Georgia-65" transform="translate(202.246094 0.40625)"/>
     <use xlink:href="#Georgia-70" transform="translate(250.585938 0.40625)"/>
     <use xlink:href="#Georgia-74" transform="translate(307.714844 0.40625)"/>
     <use xlink:href="#Georgia-69" transform="translate(342.236328 0.40625)"/>
     <use xlink:href="#Georgia-62" transform="translate(371.533203 0.40625)"/>
     <use xlink:href="#Georgia-69" transform="translate(427.539062 0.40625)"/>
     <use xlink:href="#Georgia-6c" transform="translate(456.835938 0.40625)"/>
     <use xlink:href="#Georgia-69" transform="translate(485.449219 0.40625)"/>
     <use xlink:href="#Georgia-74" transform="translate(514.746094 0.40625)"/>
     <use xlink:href="#Georgia-79" transform="translate(549.267578 0.40625)"/>
     <use xlink:href="#Georgia-20" transform="translate(598.486328 0.40625)"/>
     <use xlink:href="#Georgia-28" transform="translate(622.607422 0.40625)"/>
     <use xlink:href="#Cmmi10-53" transform="translate(660.107422 0.40625)"/>
     <use xlink:href="#Cmmi10-69" transform="translate(721.386719 -16.6) scale(0.7)"/>
     <use xlink:href="#Georgia-29" transform="translate(751.860742 0.40625)"/>
    </g>
   </g>
   <g id="legend_1">
    <g id="patch_12">
     <path d="M 92.523906 274.477341 
L 114.523906 274.477341 
L 114.523906 266.777341 
L 92.523906 266.777341 
z
" style="fill: #8a6aa8"/>
    </g>
    <g id="text_12">
     <!-- silent -->
     <g style="fill: #1a1a2e" transform="translate(123.323906 274.477341) scale(0.11 -0.11)">
      <defs>
       <path id="Georgia-6e" d="M 3628 0 
L 2119 0 
L 2119 206 
Q 2191 213 2277 219 
Q 2363 225 2419 244 
Q 2506 272 2548 342 
Q 2591 413 2591 525 
L 2591 2109 
Q 2591 2438 2436 2616 
Q 2281 2794 2059 2794 
Q 1894 2794 1756 2742 
Q 1619 2691 1513 2616 
Q 1409 2544 1348 2461 
Q 1288 2378 1259 2328 
L 1259 556 
Q 1259 450 1303 381 
Q 1347 313 1434 275 
Q 1500 244 1576 228 
Q 1653 213 1734 206 
L 1734 0 
L 225 0 
L 225 206 
Q 297 213 373 219 
Q 450 225 506 244 
Q 594 272 636 342 
Q 678 413 678 525 
L 678 2428 
Q 678 2534 633 2623 
Q 588 2713 506 2769 
Q 447 2806 365 2823 
Q 284 2841 191 2847 
L 191 3050 
L 1216 3119 
L 1259 3075 
L 1259 2641 
L 1275 2641 
Q 1350 2716 1462 2820 
Q 1575 2925 1675 2991 
Q 1791 3066 1950 3116 
Q 2109 3166 2309 3166 
Q 2753 3166 2967 2889 
Q 3181 2613 3181 2153 
L 3181 550 
Q 3181 441 3218 373 
Q 3256 306 3347 269 
Q 3422 238 3476 225 
Q 3531 213 3628 206 
L 3628 0 
z
" transform="scale(0.015625)"/>
      </defs>
      <use xlink:href="#Georgia-73"/>
      <use xlink:href="#Georgia-69" transform="translate(43.212891 0)"/>
      <use xlink:href="#Georgia-6c" transform="translate(72.509766 0)"/>
      <use xlink:href="#Georgia-65" transform="translate(101.123047 0)"/>
      <use xlink:href="#Georgia-6e" transform="translate(149.462891 0)"/>
      <use xlink:href="#Georgia-74" transform="translate(208.544922 0)"/>
     </g>
    </g>
    <g id="patch_13">
     <path d="M 172.060781 274.477341 
L 194.060781 274.477341 
L 194.060781 266.777341 
L 172.060781 266.777341 
z
" style="fill: #b9a3cc"/>
    </g>
    <g id="text_13">
     <!-- verbalized -->
     <g style="fill: #1a1a2e" transform="translate(202.860781 274.477341) scale(0.11 -0.11)">
      <defs>
       <path id="Georgia-72" d="M 2584 2684 
Q 2584 2525 2506 2401 
Q 2428 2278 2266 2278 
Q 2091 2278 1998 2368 
Q 1906 2459 1906 2569 
Q 1906 2638 1917 2694 
Q 1928 2750 1938 2806 
Q 1791 2806 1594 2687 
Q 1397 2569 1259 2350 
L 1259 556 
Q 1259 447 1301 378 
Q 1344 309 1434 275 
Q 1513 244 1636 228 
Q 1759 213 1850 206 
L 1850 0 
L 225 0 
L 225 206 
Q 297 213 373 219 
Q 450 225 506 244 
Q 594 272 636 342 
Q 678 413 678 525 
L 678 2428 
Q 678 2525 633 2619 
Q 588 2713 506 2769 
Q 447 2806 365 2823 
Q 284 2841 191 2847 
L 191 3050 
L 1216 3119 
L 1259 3075 
L 1259 2641 
L 1275 2641 
Q 1469 2894 1706 3025 
Q 1944 3156 2141 3156 
Q 2338 3156 2461 3028 
Q 2584 2900 2584 2684 
z
" transform="scale(0.015625)"/>
       <path id="Georgia-7a" d="M 2666 0 
L 172 0 
L 172 166 
L 1916 2828 
L 1484 2828 
Q 1213 2828 1059 2818 
Q 906 2809 778 2756 
Q 691 2722 614 2559 
Q 538 2397 481 2134 
L 291 2134 
L 291 3081 
L 2647 3081 
L 2647 2953 
L 875 253 
Q 988 250 1122 248 
Q 1256 247 1413 247 
Q 1538 247 1673 250 
Q 1809 253 2022 266 
Q 2147 272 2211 350 
Q 2275 428 2309 528 
Q 2344 619 2392 778 
Q 2441 938 2478 1088 
L 2666 1088 
L 2666 0 
z
" transform="scale(0.015625)"/>
      </defs>
      <use xlink:href="#Georgia-76"/>
      <use xlink:href="#Georgia-65" transform="translate(49.658203 0)"/>
      <use xlink:href="#Georgia-72" transform="translate(97.998047 0)"/>
      <use xlink:href="#Georgia-62" transform="translate(138.964844 0)"/>
      <use xlink:href="#Georgia-61" transform="translate(194.970703 0)"/>
      <use xlink:href="#Georgia-6c" transform="translate(245.361328 0)"/>
      <use xlink:href="#Georgia-69" transform="translate(273.974609 0)"/>
      <use xlink:href="#Georgia-7a" transform="translate(303.271484 0)"/>
      <use xlink:href="#Georgia-65" transform="translate(347.65625 0)"/>
      <use xlink:href="#Georgia-64" transform="translate(395.996094 0)"/>
     </g>
    </g>
    <g id="patch_14">
     <path d="M 274.737188 274.477341 
L 296.737188 274.477341 
L 296.737188 266.777341 
L 274.737188 266.777341 
z
" style="fill: #dcd7e0"/>
    </g>
    <g id="text_14">
     <!-- unmoved -->
     <g style="fill: #1a1a2e" transform="translate(305.537188 274.477341) scale(0.11 -0.11)">
      <use xlink:href="#Georgia-75"/>
      <use xlink:href="#Georgia-6e" transform="translate(57.519531 0)"/>
      <use xlink:href="#Georgia-6d" transform="translate(116.601562 0)"/>
      <use xlink:href="#Georgia-6f" transform="translate(204.6875 0)"/>
      <use xlink:href="#Georgia-76" transform="translate(258.59375 0)"/>
      <use xlink:href="#Georgia-65" transform="translate(308.251953 0)"/>
      <use xlink:href="#Georgia-64" transform="translate(356.591797 0)"/>
     </g>
    </g>
   </g>
  </g>
  <g id="axes_2">
   <g id="patch_15">
    <path d="M 439.746406 231.27824 
L 775.576406 231.27824 
L 775.576406 23.08 
L 439.746406 23.08 
L 439.746406 231.27824 
z
" style="fill: none"/>
   </g>
   <g id="matplotlib.axis_3">
    <g id="xtick_3">
     <g id="line2d_9">
      <g>
       <use xlink:href="#m7267dcb832" x="523.703906" y="231.27824" style="fill: #1a1a2e; stroke: #1a1a2e; stroke-width: 0.6"/>
      </g>
     </g>
     <g id="text_15">
      <!-- Opus -->
      <g style="fill: #1a1a2e" transform="translate(510.928438 246.593552) scale(0.11 -0.11)">
       <use xlink:href="#Georgia-4f"/>
       <use xlink:href="#Georgia-70" transform="translate(74.414062 0)"/>
       <use xlink:href="#Georgia-75" transform="translate(131.542969 0)"/>
       <use xlink:href="#Georgia-73" transform="translate(189.0625 0)"/>
      </g>
      <!-- 1 out of 3 moved -->
      <g style="fill: #1a1a2e" transform="translate(483.860703 258.957553) scale(0.11 -0.11)">
       <use xlink:href="#Georgia-31"/>
       <use xlink:href="#Georgia-20" transform="translate(42.96875 0)"/>
       <use xlink:href="#Georgia-6f" transform="translate(67.089844 0)"/>
       <use xlink:href="#Georgia-75" transform="translate(120.996094 0)"/>
       <use xlink:href="#Georgia-74" transform="translate(178.515625 0)"/>
       <use xlink:href="#Georgia-20" transform="translate(213.037109 0)"/>
       <use xlink:href="#Georgia-6f" transform="translate(237.158203 0)"/>
       <use xlink:href="#Georgia-66" transform="translate(291.064453 0)"/>
       <use xlink:href="#Georgia-20" transform="translate(323.583984 0)"/>
       <use xlink:href="#Georgia-33" transform="translate(347.705078 0)"/>
       <use xlink:href="#Georgia-20" transform="translate(402.880859 0)"/>
       <use xlink:href="#Georgia-6d" transform="translate(427.001953 0)"/>
       <use xlink:href="#Georgia-6f" transform="translate(515.087891 0)"/>
       <use xlink:href="#Georgia-76" transform="translate(568.994141 0)"/>
       <use xlink:href="#Georgia-65" transform="translate(618.652344 0)"/>
       <use xlink:href="#Georgia-64" transform="translate(666.992188 0)"/>
      </g>
     </g>
    </g>
    <g id="xtick_4">
     <g id="line2d_10">
      <g>
       <use xlink:href="#m7267dcb832" x="691.618906" y="231.27824" style="fill: #1a1a2e; stroke: #1a1a2e; stroke-width: 0.6"/>
      </g>
     </g>
     <g id="text_16">
      <!-- Llama -->
      <g style="fill: #1a1a2e" transform="translate(676.3375 246.593552) scale(0.11 -0.11)">
       <use xlink:href="#Georgia-4c"/>
       <use xlink:href="#Georgia-6c" transform="translate(60.351562 0)"/>
       <use xlink:href="#Georgia-61" transform="translate(88.964844 0)"/>
       <use xlink:href="#Georgia-6d" transform="translate(139.355469 0)"/>
       <use xlink:href="#Georgia-61" transform="translate(227.441406 0)"/>
      </g>
      <!-- 219 out of 224 moved -->
      <g style="fill: #1a1a2e" transform="translate(639.373203 258.957553) scale(0.11 -0.11)">
       <use xlink:href="#Georgia-32"/>
       <use xlink:href="#Georgia-31" transform="translate(55.859375 0)"/>
       <use xlink:href="#Georgia-39" transform="translate(98.828125 0)"/>
       <use xlink:href="#Georgia-20" transform="translate(155.419922 0)"/>
       <use xlink:href="#Georgia-6f" transform="translate(179.541016 0)"/>
       <use xlink:href="#Georgia-75" transform="translate(233.447266 0)"/>
       <use xlink:href="#Georgia-74" transform="translate(290.966797 0)"/>
       <use xlink:href="#Georgia-20" transform="translate(325.488281 0)"/>
       <use xlink:href="#Georgia-6f" transform="translate(349.609375 0)"/>
       <use xlink:href="#Georgia-66" transform="translate(403.515625 0)"/>
       <use xlink:href="#Georgia-20" transform="translate(436.035156 0)"/>
       <use xlink:href="#Georgia-32" transform="translate(460.15625 0)"/>
       <use xlink:href="#Georgia-32" transform="translate(516.015625 0)"/>
       <use xlink:href="#Georgia-34" transform="translate(571.875 0)"/>
       <use xlink:href="#Georgia-20" transform="translate(628.369141 0)"/>
       <use xlink:href="#Georgia-6d" transform="translate(652.490234 0)"/>
       <use xlink:href="#Georgia-6f" transform="translate(740.576172 0)"/>
       <use xlink:href="#Georgia-76" transform="translate(794.482422 0)"/>
       <use xlink:href="#Georgia-65" transform="translate(844.140625 0)"/>
       <use xlink:href="#Georgia-64" transform="translate(892.480469 0)"/>
      </g>
     </g>
    </g>
   </g>
   <g id="matplotlib.axis_4">
    <g id="ytick_7">
     <g id="line2d_11">
      <path d="M 439.746406 231.27824 
L 775.576406 231.27824 
" clip-path="url(#p80d90e97b9)" style="fill: none; stroke: #6e6e6e; stroke-opacity: 0.15; stroke-width: 0.5; stroke-linecap: square"/>
     </g>
     <g id="line2d_12">
      <g>
       <use xlink:href="#m849c8806e0" x="439.746406" y="231.27824" style="fill: #1a1a2e; stroke: #1a1a2e; stroke-width: 0.6"/>
      </g>
     </g>
     <g id="text_17">
      <!-- 0.0 -->
      <g style="fill: #1a1a2e" transform="translate(416.279062 235.435896) scale(0.11 -0.11)">
       <defs>
        <path id="Georgia-2e" d="M 1297 359 
Q 1297 184 1170 60 
Q 1044 -63 869 -63 
Q 694 -63 567 60 
Q 441 184 441 359 
Q 441 534 567 661 
Q 694 788 869 788 
Q 1044 788 1170 661 
Q 1297 534 1297 359 
z
" transform="scale(0.015625)"/>
       </defs>
       <use xlink:href="#Georgia-30"/>
       <use xlink:href="#Georgia-2e" transform="translate(61.376953 0)"/>
       <use xlink:href="#Georgia-30" transform="translate(88.330078 0)"/>
      </g>
     </g>
    </g>
    <g id="ytick_8">
     <g id="line2d_13">
      <path d="M 439.746406 189.638592 
L 775.576406 189.638592 
" clip-path="url(#p80d90e97b9)" style="fill: none; stroke: #6e6e6e; stroke-opacity: 0.15; stroke-width: 0.5; stroke-linecap: square"/>
     </g>
     <g id="line2d_14">
      <g>
       <use xlink:href="#m849c8806e0" x="439.746406" y="189.638592" style="fill: #1a1a2e; stroke: #1a1a2e; stroke-width: 0.6"/>
      </g>
     </g>
     <g id="text_18">
      <!-- 0.2 -->
      <g style="fill: #1a1a2e" transform="translate(416.885781 193.796248) scale(0.11 -0.11)">
       <use xlink:href="#Georgia-30"/>
       <use xlink:href="#Georgia-2e" transform="translate(61.376953 0)"/>
       <use xlink:href="#Georgia-32" transform="translate(88.330078 0)"/>
      </g>
     </g>
    </g>
    <g id="ytick_9">
     <g id="line2d_15">
      <path d="M 439.746406 147.998944 
L 775.576406 147.998944 
" clip-path="url(#p80d90e97b9)" style="fill: none; stroke: #6e6e6e; stroke-opacity: 0.15; stroke-width: 0.5; stroke-linecap: square"/>
     </g>
     <g id="line2d_16">
      <g>
       <use xlink:href="#m849c8806e0" x="439.746406" y="147.998944" style="fill: #1a1a2e; stroke: #1a1a2e; stroke-width: 0.6"/>
      </g>
     </g>
     <g id="text_19">
      <!-- 0.4 -->
      <g style="fill: #1a1a2e" transform="translate(416.815312 152.1566) scale(0.11 -0.11)">
       <use xlink:href="#Georgia-30"/>
       <use xlink:href="#Georgia-2e" transform="translate(61.376953 0)"/>
       <use xlink:href="#Georgia-34" transform="translate(88.330078 0)"/>
      </g>
     </g>
    </g>
    <g id="ytick_10">
     <g id="line2d_17">
      <path d="M 439.746406 106.359296 
L 775.576406 106.359296 
" clip-path="url(#p80d90e97b9)" style="fill: none; stroke: #6e6e6e; stroke-opacity: 0.15; stroke-width: 0.5; stroke-linecap: square"/>
     </g>
     <g id="line2d_18">
      <g>
       <use xlink:href="#m849c8806e0" x="439.746406" y="106.359296" style="fill: #1a1a2e; stroke: #1a1a2e; stroke-width: 0.6"/>
      </g>
     </g>
     <g id="text_20">
      <!-- 0.6 -->
      <g style="fill: #1a1a2e" transform="translate(416.805 110.516952) scale(0.11 -0.11)">
       <use xlink:href="#Georgia-30"/>
       <use xlink:href="#Georgia-2e" transform="translate(61.376953 0)"/>
       <use xlink:href="#Georgia-36" transform="translate(88.330078 0)"/>
      </g>
     </g>
    </g>
    <g id="ytick_11">
     <g id="line2d_19">
      <path d="M 439.746406 64.719648 
L 775.576406 64.719648 
" clip-path="url(#p80d90e97b9)" style="fill: none; stroke: #6e6e6e; stroke-opacity: 0.15; stroke-width: 0.5; stroke-linecap: square"/>
     </g>
     <g id="line2d_20">
      <g>
       <use xlink:href="#m849c8806e0" x="439.746406" y="64.719648" style="fill: #1a1a2e; stroke: #1a1a2e; stroke-width: 0.6"/>
      </g>
     </g>
     <g id="text_21">
      <!-- 0.8 -->
      <g style="fill: #1a1a2e" transform="translate(416.471562 68.877304) scale(0.11 -0.11)">
       <use xlink:href="#Georgia-30"/>
       <use xlink:href="#Georgia-2e" transform="translate(61.376953 0)"/>
       <use xlink:href="#Georgia-38" transform="translate(88.330078 0)"/>
      </g>
     </g>
    </g>
    <g id="ytick_12">
     <g id="line2d_21">
      <path d="M 439.746406 23.08 
L 775.576406 23.08 
" clip-path="url(#p80d90e97b9)" style="fill: none; stroke: #6e6e6e; stroke-opacity: 0.15; stroke-width: 0.5; stroke-linecap: square"/>
     </g>
     <g id="line2d_22">
      <g>
       <use xlink:href="#m849c8806e0" x="439.746406" y="23.08" style="fill: #1a1a2e; stroke: #1a1a2e; stroke-width: 0.6"/>
      </g>
     </g>
     <g id="text_22">
      <!-- 1.0 -->
      <g style="fill: #1a1a2e" transform="translate(418.30375 27.237656) scale(0.11 -0.11)">
       <use xlink:href="#Georgia-31"/>
       <use xlink:href="#Georgia-2e" transform="translate(42.96875 0)"/>
       <use xlink:href="#Georgia-30" transform="translate(69.921875 0)"/>
      </g>
     </g>
    </g>
    <g id="text_23">
     <!-- U = silent / moved -->
     <g style="fill: #1a1a2e" transform="translate(409.893437 172.488807) rotate(-90) scale(0.11 -0.11)">
      <defs>
       <path id="Georgia-55" d="M 4791 4213 
Q 4703 4209 4534 4175 
Q 4366 4141 4259 4072 
Q 4153 4000 4112 3775 
Q 4072 3550 4072 3225 
L 4072 1297 
Q 4072 928 3919 656 
Q 3766 384 3516 209 
Q 3269 41 2995 -32 
Q 2722 -106 2472 -106 
Q 2072 -106 1759 -1 
Q 1447 103 1234 281 
Q 1025 459 919 689 
Q 813 919 813 1169 
L 813 3791 
Q 813 3900 777 3973 
Q 741 4047 631 4109 
Q 553 4153 431 4179 
Q 309 4206 231 4213 
L 231 4434 
L 2078 4434 
L 2078 4213 
Q 1991 4209 1858 4184 
Q 1725 4159 1663 4138 
Q 1556 4100 1520 4012 
Q 1484 3925 1484 3822 
L 1484 1372 
Q 1484 1194 1523 998 
Q 1563 803 1678 634 
Q 1800 463 2009 353 
Q 2219 244 2584 244 
Q 2928 244 3161 353 
Q 3394 463 3528 641 
Q 3656 809 3709 993 
Q 3763 1178 3763 1366 
L 3763 3184 
Q 3763 3531 3713 3751 
Q 3663 3972 3566 4041 
Q 3456 4119 3267 4162 
Q 3078 4206 2978 4213 
L 2978 4434 
L 4791 4434 
L 4791 4213 
z
" transform="scale(0.015625)"/>
       <path id="Georgia-2f" d="M 2719 4759 
L 559 -1325 
L 153 -1325 
L 2306 4759 
L 2719 4759 
z
" transform="scale(0.015625)"/>
      </defs>
      <use xlink:href="#Georgia-55"/>
      <use xlink:href="#Georgia-20" transform="translate(75.634766 0)"/>
      <use xlink:href="#Georgia-3d" transform="translate(99.755859 0)"/>
      <use xlink:href="#Georgia-20" transform="translate(164.0625 0)"/>
      <use xlink:href="#Georgia-73" transform="translate(188.183594 0)"/>
      <use xlink:href="#Georgia-69" transform="translate(231.396484 0)"/>
      <use xlink:href="#Georgia-6c" transform="translate(260.693359 0)"/>
      <use xlink:href="#Georgia-65" transform="translate(289.306641 0)"/>
      <use xlink:href="#Georgia-6e" transform="translate(337.646484 0)"/>
      <use xlink:href="#Georgia-74" transform="translate(396.728516 0)"/>
      <use xlink:href="#Georgia-20" transform="translate(431.25 0)"/>
      <use xlink:href="#Georgia-2f" transform="translate(455.371094 0)"/>
      <use xlink:href="#Georgia-20" transform="translate(502.246094 0)"/>
      <use xlink:href="#Georgia-6d" transform="translate(526.367188 0)"/>
      <use xlink:href="#Georgia-6f" transform="translate(614.453125 0)"/>
      <use xlink:href="#Georgia-76" transform="translate(668.359375 0)"/>
      <use xlink:href="#Georgia-65" transform="translate(718.017578 0)"/>
      <use xlink:href="#Georgia-64" transform="translate(766.357422 0)"/>
     </g>
    </g>
   </g>
   <g id="LineCollection_1">
    <path d="M 523.703906 218.475725 
L 523.703906 66.314363 
" clip-path="url(#p80d90e97b9)" style="fill: none; stroke: #8a6aa8; stroke-width: 1.5"/>
    <path d="M 691.618906 33.735422 
L 691.618906 25.072704 
" clip-path="url(#p80d90e97b9)" style="fill: none; stroke: #8a6aa8; stroke-width: 1.5"/>
   </g>
   <g id="line2d_23">
    <defs>
     <path id="m46553bc15a" d="M 3 0 
L -3 -0 
" style="stroke: #8a6aa8"/>
    </defs>
    <g clip-path="url(#p80d90e97b9)">
     <use xlink:href="#m46553bc15a" x="523.703906" y="218.475725" style="fill: #8a6aa8; stroke: #8a6aa8"/>
     <use xlink:href="#m46553bc15a" x="691.618906" y="33.735422" style="fill: #8a6aa8; stroke: #8a6aa8"/>
    </g>
   </g>
   <g id="line2d_24">
    <g clip-path="url(#p80d90e97b9)">
     <use xlink:href="#m46553bc15a" x="523.703906" y="66.314363" style="fill: #8a6aa8; stroke: #8a6aa8"/>
     <use xlink:href="#m46553bc15a" x="691.618906" y="25.072704" style="fill: #8a6aa8; stroke: #8a6aa8"/>
    </g>
   </g>
   <g id="line2d_25">
    <defs>
     <path id="mb8fd3b100b" d="M 0 3 
C 0.795609 3 1.55874 2.683901 2.12132 2.12132 
C 2.683901 1.55874 3 0.795609 3 0 
C 3 -0.795609 2.683901 -1.55874 2.12132 -2.12132 
C 1.55874 -2.683901 0.795609 -3 0 -3 
C -0.795609 -3 -1.55874 -2.683901 -2.12132 -2.12132 
C -2.683901 -1.55874 -3 -0.795609 -3 0 
C -3 0.795609 -2.683901 1.55874 -2.12132 2.12132 
C -1.55874 2.683901 -0.795609 3 0 3 
z
" style="stroke: #8a6aa8"/>
    </defs>
    <g clip-path="url(#p80d90e97b9)">
     <use xlink:href="#mb8fd3b100b" x="523.703906" y="161.878827" style="fill: #8a6aa8; stroke: #8a6aa8"/>
     <use xlink:href="#mb8fd3b100b" x="691.618906" y="27.727282" style="fill: #8a6aa8; stroke: #8a6aa8"/>
    </g>
   </g>
   <g id="patch_16">
    <path d="M 439.746406 231.27824 
L 439.746406 23.08 
" style="fill: none; stroke: #1a1a2e; stroke-width: 0.6; stroke-linejoin: miter; stroke-linecap: square"/>
   </g>
   <g id="patch_17">
    <path d="M 439.746406 231.27824 
L 775.576406 231.27824 
" style="fill: none; stroke: #1a1a2e; stroke-width: 0.6; stroke-linejoin: miter; stroke-linecap: square"/>
   </g>
   <g id="text_24">
    <!-- Unfaithfulness ($U_i$) -->
    <g style="fill: #1a1a2e" transform="translate(552.411406 17.08) scale(0.13 -0.13)">
     <defs>
      <path id="Georgia-68" d="M 3572 0 
L 2059 0 
L 2059 206 
Q 2131 213 2218 219 
Q 2306 225 2363 244 
Q 2450 272 2492 342 
Q 2534 413 2534 525 
L 2534 2109 
Q 2534 2438 2379 2616 
Q 2225 2794 2003 2794 
Q 1841 2794 1702 2742 
Q 1563 2691 1453 2616 
Q 1347 2538 1290 2459 
Q 1234 2381 1203 2328 
L 1203 556 
Q 1203 450 1245 381 
Q 1288 313 1375 275 
Q 1444 244 1517 228 
Q 1591 213 1678 206 
L 1678 0 
L 166 0 
L 166 206 
Q 238 213 316 220 
Q 394 228 447 244 
Q 534 272 578 342 
Q 622 413 622 525 
L 622 4113 
Q 622 4219 573 4325 
Q 525 4431 447 4484 
Q 391 4525 248 4542 
Q 106 4559 19 4566 
L 19 4766 
L 1159 4838 
L 1203 4791 
L 1203 2641 
L 1216 2641 
Q 1319 2744 1403 2823 
Q 1488 2903 1625 2991 
Q 1744 3066 1905 3116 
Q 2066 3166 2266 3166 
Q 2678 3166 2900 2905 
Q 3122 2644 3122 2153 
L 3122 550 
Q 3122 441 3161 373 
Q 3200 306 3291 269 
Q 3363 241 3420 227 
Q 3478 213 3572 206 
L 3572 0 
z
" transform="scale(0.015625)"/>
      <path id="Cmmi10-55" d="M 941 891 
Q 941 656 1033 472 
Q 1125 288 1300 186 
Q 1475 84 1709 84 
Q 1984 84 2245 196 
Q 2506 309 2715 509 
Q 2925 709 3073 965 
Q 3222 1222 3284 1472 
L 3859 3781 
Q 3872 3850 3872 3878 
Q 3872 4147 3378 4147 
Q 3316 4147 3316 4231 
Q 3338 4313 3350 4342 
Q 3363 4372 3425 4372 
L 4813 4372 
Q 4841 4372 4859 4344 
Q 4878 4316 4878 4288 
Q 4878 4284 4865 4239 
Q 4853 4194 4836 4170 
Q 4819 4147 4794 4147 
Q 4181 4147 4084 3756 
L 3506 1447 
Q 3434 1147 3264 864 
Q 3094 581 2845 351 
Q 2597 122 2298 -9 
Q 2000 -141 1691 -141 
Q 1338 -141 1045 14 
Q 753 169 587 447 
Q 422 725 422 1088 
Q 422 1297 469 1472 
L 1088 3956 
Q 1100 4019 1100 4044 
Q 1100 4113 1025 4122 
Q 903 4147 563 4147 
Q 500 4147 500 4231 
Q 522 4313 534 4342 
Q 547 4372 609 4372 
L 2328 4372 
Q 2394 4372 2394 4288 
Q 2391 4272 2381 4234 
Q 2372 4197 2356 4172 
Q 2341 4147 2309 4147 
Q 1919 4147 1766 4103 
Q 1681 4072 1644 3928 
L 1025 1447 
Q 941 1109 941 891 
z
" transform="scale(0.015625)"/>
     </defs>
     <use xlink:href="#Georgia-55" transform="translate(0 0.359375)"/>
     <use xlink:href="#Georgia-6e" transform="translate(75.634766 0.359375)"/>
     <use xlink:href="#Georgia-66" transform="translate(134.716797 0.359375)"/>
     <use xlink:href="#Georgia-61" transform="translate(167.236328 0.359375)"/>
     <use xlink:href="#Georgia-69" transform="translate(217.626953 0.359375)"/>
     <use xlink:href="#Georgia-74" transform="translate(246.923828 0.359375)"/>
     <use xlink:href="#Georgia-68" transform="translate(281.445312 0.359375)"/>
     <use xlink:href="#Georgia-66" transform="translate(339.648438 0.359375)"/>
     <use xlink:href="#Georgia-75" transform="translate(372.167969 0.359375)"/>
     <use xlink:href="#Georgia-6c" transform="translate(429.6875 0.359375)"/>
     <use xlink:href="#Georgia-6e" transform="translate(458.300781 0.359375)"/>
     <use xlink:href="#Georgia-65" transform="translate(517.382812 0.359375)"/>
     <use xlink:href="#Georgia-73" transform="translate(565.722656 0.359375)"/>
     <use xlink:href="#Georgia-73" transform="translate(608.935547 0.359375)"/>
     <use xlink:href="#Georgia-20" transform="translate(652.148438 0.359375)"/>
     <use xlink:href="#Georgia-28" transform="translate(676.269531 0.359375)"/>
     <use xlink:href="#Cmmi10-55" transform="translate(713.769531 0.359375)"/>
     <use xlink:href="#Cmmi10-69" transform="translate(781.982422 -16.646875) scale(0.7)"/>
     <use xlink:href="#Georgia-29" transform="translate(812.456445 0.359375)"/>
    </g>
   </g>
  </g>
 </g>
 <defs>
  <clipPath id="p953c8249cf">
   <rect x="53.886406" y="23.08" width="335.83" height="208.19824"/>
  </clipPath>
  <clipPath id="p80d90e97b9">
   <rect x="439.746406" y="23.08" width="335.83" height="208.19824"/>
  </clipPath>
 </defs>
</svg>
